<?xml version="1.0" encoding="UTF-8" standalone="no"?>
<!-- Created with Inkscape (http://www.inkscape.org/) -->

<svg
   xmlns:dc="http://purl.org/dc/elements/1.1/"
   xmlns:cc="http://creativecommons.org/ns#"
   xmlns:rdf="http://www.w3.org/1999/02/22-rdf-syntax-ns#"
   xmlns:svg="http://www.w3.org/2000/svg"
   xmlns="http://www.w3.org/2000/svg"
   xmlns:sodipodi="http://sodipodi.sourceforge.net/DTD/sodipodi-0.dtd"
   xmlns:inkscape="http://www.inkscape.org/namespaces/inkscape"
   width="100"
   height="100"
   id="svg2"
   version="1.1"
   inkscape:version="0.48.3.1 r9886"
   sodipodi:docname="multicopterLogo.svg">
  <defs
     id="defs4" />
  <sodipodi:namedview
     id="base"
     pagecolor="#ffffff"
     bordercolor="#666666"
     borderopacity="1.0"
     inkscape:pageopacity="0.0"
     inkscape:pageshadow="2"
     inkscape:zoom="0.90509668"
     inkscape:cx="152.9509"
     inkscape:cy="195.42116"
     inkscape:document-units="px"
     inkscape:current-layer="layer1"
     showgrid="false"
     inkscape:window-width="1366"
     inkscape:window-height="706"
     inkscape:window-x="-8"
     inkscape:window-y="-8"
     inkscape:window-maximized="1" />
  <metadata
     id="metadata7">
    <rdf:RDF>
      <cc:Work
         rdf:about="">
        <dc:format>image/svg+xml</dc:format>
        <dc:type
           rdf:resource="http://purl.org/dc/dcmitype/StillImage" />
        <dc:title></dc:title>
      </cc:Work>
    </rdf:RDF>
  </metadata>
  <g
     inkscape:label="Layer 1"
     inkscape:groupmode="layer"
     id="layer1"
     transform="translate(0,-952.36222)">
    <path
       style="fill:#fcb41f;stroke:none;fill-opacity:0.47058824"
       d="m 26.674091,1045.6141 c -0.389783,-0.3898 -2.827283,-0.9523 -5.416667,-1.25 -5.921297,-0.6808 -6.661435,-3.3784 -1.055182,-3.8459 5.362569,-0.4471 9.801455,-5.3773 15.745753,-17.4886 2.805802,-5.7168 5.101459,-10.8538 5.101459,-11.4156 0,-0.5618 -0.932661,-2.2071 -2.07258,-3.6563 -2.046867,-2.6022 -2.231946,-2.6349 -14.918213,-2.6349 -7.065097,0 -13.557436,0.2732 -14.4274193,0.607 -1.1441658,0.4391 -1.5817878,1.9607 -1.5817878,5.5 0,3.5376 -0.389534,4.893 -1.406162,4.893 -0.928996,0 -1.639465,-1.6963 -2.093684,-4.9988 -0.378137,-2.7494 -1.095364,-5.251 -1.5938381,-5.5591 -1.1871998,-0.7337 -1.166578,-4.7781 0.030552,-5.99206 0.5152771,-0.5225 1.0777771,-2.975 1.2500001,-5.44995 0.222265,-3.19417 0.748411,-4.5 1.813132,-4.5 1.066667,0 1.644444,1.44444 2,5 l 0.5,4.99995 7.0000001,0.32266 c 11.26708,0.5193 21.529046,-0.71116 22.218517,-2.66416 0.322015,-0.91215 1.236344,-2.4178 2.031842,-3.34588 1.288134,-1.50283 0.861269,-2.80689 -3.901999,-11.92055 -6.887894,-13.17874 -9.53401,-15.89202 -15.498607,-15.89202 -3.74196,0 -4.440756,-0.29363 -4.164761,-1.75 0.236847,-1.2498 1.472599,-1.84056 4.323325,-2.06683 2.195425,-0.17425 4.419183,-0.73675 4.941683,-1.25 1.260664,-1.23834 5.270741,-1.19404 6.05,0.0668 0.339919,0.55 2.814919,1 5.5,1 4.972323,0 7.366987,1.52006 4.878115,3.09649 -0.757963,0.48008 -3.065615,0.87977 -5.128115,0.88819 -2.0625,0.008 -3.75,0.2997 -3.75,0.64728 0,0.77819 2.849401,5.6192 8.890823,15.10512 4.461661,7.00546 4.737197,7.23724 8.609177,7.24209 3.885568,0.005 4.145609,-0.21648 9.089826,-7.73709 2.799405,-4.25815 6.083607,-9.40532 7.298228,-11.43815 l 2.208401,-3.69607 -5.298227,-0.36895 -5.298228,-0.36895 6.25,-0.18498 c 3.4375,-0.10174 6.25,0.19319 6.25,0.6554 0,1.3192 -9.379168,16.58794 -12.990055,21.14706 -3.071751,3.8784 -3.519315,4.09502 -7.876609,3.81231 -4.474174,-0.29031 -4.761861,-0.50942 -9.126567,-6.9512 -2.478723,-3.65829 -5.080698,-7.48329 -5.782167,-8.5 -0.701469,-1.0167 0.808073,2.31682 3.354538,7.40783 2.546464,5.09102 4.352938,9.81602 4.014385,10.5 -3.225263,6.51606 -4.15027,7.23326 -10.169499,7.88506 -9.735418,1.0541 -22.415456,0.9335 -24.5971261,-0.2341 -2.91361,-1.55926 -4.5838635,0.2718 -3.030467,3.3224 0.635811,1.2486 1.3131,4.2952 1.505086,6.7702 l 0.349067,4.5 0.174707,-5.2148 c 0.134661,-4.0195 0.618082,-5.4521 2.1089658,-6.25 1.0638423,-0.5694 7.8582973,-1.0352 15.0987903,-1.0352 l 13.164531,0 2.90121,3.1058 c 1.595666,1.7081 2.90121,3.9671 2.90121,5.0199 0,1.0529 -2.027201,6.0678 -4.504891,11.1443 -2.47769,5.0765 -3.94019,8.382 -3.25,7.3456 0.69019,-1.0364 3.383306,-5.1989 5.984702,-9.25 4.719739,-7.3499 4.739328,-7.3656 9.199109,-7.3656 3.868386,0 4.801767,0.437 6.942052,3.25 3.685085,4.8434 13.629028,21.9519 13.629028,23.4486 0,0.7158 -1.0125,1.3536 -2.25,1.4174 -2.038641,0.1051 -2.062125,0.1622 -0.25,0.6076 1.1,0.2704 2.581572,0.9641 3.292382,1.5416 0.910516,0.7398 1.634428,0.708 2.45,-0.1076 0.651994,-0.652 3.800134,-1.1063 7.207618,-1.04 l 6.05,0.1176 -4.969518,0.8309 c -2.733235,0.457 -5.939485,1.35 -7.125,1.9845 -1.583619,0.8475 -2.701817,0.8611 -4.214741,0.051 -1.132592,-0.6062 -4.113842,-1.1021 -6.625,-1.1021 -3.899074,0 -4.565741,-0.2921 -4.565741,-2 0,-1.7048 0.666667,-2 4.516846,-2 l 4.516846,0 -2.56105,-5.054 c -1.408577,-2.7797 -4.678657,-8.3884 -7.266845,-12.4638 -4.475428,-7.0471 -4.890363,-7.4116 -8.475969,-7.446 -3.570763,-0.034 -4.000275,0.3208 -8.120683,6.7138 -4.078715,6.3283 -9.609145,16.5249 -9.609145,17.7167 0,0.2933 2.25,0.5333 5,0.5333 3.777778,0 5,0.3666 5,1.5 0,1.3713 -3.359196,2.0285 -8.906463,1.7425 -0.773554,-0.04 -2.043197,0.5643 -2.821428,1.3425 -1.532621,1.5326 -3.51922,1.8345 -4.647472,0.7063 z m 3.925363,-2.234 c 0.5225,-0.5185 3.425,-1.1103 6.45,-1.315 l 5.5,-0.3723 -5.75,-0.185 c -6.382617,-0.2054 -6.926839,-1.0086 -4.22432,-6.2347 2.086346,-4.0345 1.133654,-3.7329 -1.314323,0.416 -1.092407,1.8515 -3.345583,3.9681 -5.007057,4.7036 -2.97597,1.3173 -2.988789,1.3549 -0.862582,2.5356 2.7429,1.523 4.017349,1.6336 5.208282,0.4518 z m 1.97568,-73.00755 c -0.839124,-1.62269 -1.52568,-3.88681 -1.52568,-5.03139 0,-2.41043 -2.459388,-3.7015 -4.262735,-2.23776 -0.680496,0.55235 -2.137265,1.22549 -3.237265,1.49588 -1.670216,0.41054 -1.58777,0.51597 0.5,0.63941 2.99529,0.17708 5.035712,1.63996 7.440149,5.3342 2.36414,3.63232 3.0062,3.51382 1.085531,-0.20034 z m 40.314106,68.20025 c -5.696535,-6.1811 -15.349432,-25.0688 -14.377274,-28.1318 0.33082,-1.0424 1.690603,-3.0703 3.02174,-4.5067 2.387849,-2.5765 2.608315,-2.6115 16.467999,-2.6115 12.441697,0 14.263821,0.2161 15.937679,1.89 1.85324,1.8532 1.9144,1.8442 3.15074,-0.4659 0.91476,-1.7093 0.96253,-2.7153 0.17403,-3.6654 -0.59772,-0.7202 -1.25944,-3.54796 -1.47049,-6.28401 l -0.38371,-4.9746 -0.18025,5.21481 c -0.13881,4.01584 -0.62498,5.4528 -2.114509,6.25 -2.205114,1.1801 -10.755018,1.3198 -22.904056,0.3741 l -8.338315,-0.649 -2.021661,-4.16116 -2.021662,-4.16119 2.722843,-5.43378 c 5.017523,-10.01312 9.700799,-17.41198 12.722375,-20.09941 1.648382,-1.4661 2.695478,-3.1536 2.32688,-3.75 -0.85986,-1.39128 -4.276546,-1.41117 -4.737744,-0.0276 -0.211441,0.63432 -2.743314,0.93017 -6.333334,0.74004 l -5.981067,-0.31676 5,-0.79128 c 2.75,-0.43521 5.781394,-1.21822 6.736431,-1.74004 2.267028,-1.23867 5.482619,-1.21236 6.263569,0.0512 0.339919,0.55 2.649472,1 5.132341,1 3.758965,0 4.458838,0.29281 4.182794,1.75 -0.227023,1.19841 -1.432111,1.83844 -3.823324,2.03059 -7.132726,0.57316 -9.990663,3.55432 -17.909704,18.68186 -4.145228,7.91852 -4.158829,7.97989 -2.465491,11.12423 1.540998,2.86144 2.271408,3.22124 7.689749,3.78754 7.63517,0.79796 21.052732,0.80886 23.111848,0.019 1.144167,-0.4391 1.581787,-1.9607 1.581787,-5.49999 0,-3.68268 0.37104,-4.89301 1.5,-4.89301 1.12831,0 1.5,1.20862 1.5,4.87755 0,3.21165 0.53605,5.32245 1.56952,6.18011 1.015402,0.8427 1.328662,2.0334 0.887302,3.3724 -0.37523,1.1385 -0.969022,4.3199 -1.319532,7.0699 -0.81272,6.3764 -3.46999,7.0556 -3.9618,1.0127 -0.51897,-6.3766 -0.858177,-6.5127 -16.229841,-6.5127 l -13.809461,0 -2.250195,3.1601 -2.250196,3.1601 5.350174,10.5231 c 2.942595,5.7876 6.881664,12.2181 8.753487,14.29 2.958586,3.2748 4.080027,3.8148 8.581928,4.1319 l 5.178614,0.3648 -6.062909,0.185 c -5.451869,0.1663 -6.318333,-0.092 -8.597305,-2.565 z"
       id="path2996"
       inkscape:connector-curvature="0" />
  </g>
</svg>
